<?xml version="1.0" encoding="UTF-8"?>
<svg id="Layer_1" data-name="Layer 1" xmlns="http://www.w3.org/2000/svg" viewBox="0 0 606.11 236.18">
  <defs>
    <style>
      .cls-1 {
        fill: none;
      }

      .cls-2 {
        fill: #fff;
      }

      .cls-3 {
        fill: #3c97d2;
      }

      .cls-4 {
        fill: #283d75;
      }

      .cls-5 {
        fill: #263d75;
      }
    </style>
  </defs>
  <path class="cls-3" d="M128.21,140.78c1.12-.25,1.44,.76,1.92,1.34,4.57,5.44,8.9,11.06,13.28,16.65,3.06,3.9,5.74,8.04,8.62,12.05,.41,.56,.93,1,1.31,1.56,.77,1.13,.55,1.61-.69,2.36-4.48,2.73-9.42,4.51-14.05,6.94-2.26,.05-4.1,1.4-6.21,1.99-3.93,1.1-7.9,2.06-11.84,3.11-2.87,.77-5.83,.95-8.71,1.58-2.87,.63-5.79,.82-8.67,1.3-.37,.06-.77,.09-1.14,.05-5.33-.45-10.65,.42-15.98,.12-.91-.05-1.84-.09-2.73-.26-1.14-.21-2.27-.36-3.38,.06-.54,.2-1.06,.07-1.59,.09-2.45,.09-5-.08-7.24-.66-2.73-.7-5.52-.7-8.2-1.44-2.7-.74-5.53-1.06-8.14-2.01-3.18-1.16-6.69-1.42-9.56-3.42-2.09-.02-3.6-1.51-5.45-2.12-1.11-.36-1.97-1.18-2.79-1.8-2.18-1.69-4.42-3.43-5.86-5.9-.11-.2-.31-.39-.32-.59-.16-2.13-1.25-3.99-1.28-6.27-.04-3.11-.03-6.26-.4-9.37-.13-1.11-.11-2.11,.19-3.14,.24-.81,.38-1.58,.14-2.45-.19-.69-.3-1.53,.4-2.14,.52-.45,.47-1.12,.58-1.7,1.57-8.12,5.29-15.31,9.77-22.12,2.5-3.81,5.53-7.26,8.74-10.51,2.56-2.59,5.01-5.32,7.75-7.71,2.63-2.29,5.59-4.2,8.38-6.32,.57-.43,1.17-.56,1.7-.21,1.91,1.3,4.18,1.73,6.28,2.51,6.33,2.33,12.57,4.89,18.56,7.97,5.41,2.77,10.63,5.92,14.85,10.41,1.72,1.82,3.07,3.82,3.42,6.53,.44,3.37-.53,6.01-3.05,8.1-2.86,2.37-2.58,2.9-6.04,.02-3.51-2.93-6.78-6.15-9.63-9.71-1.67-2.09-3.5-4.03-5.2-6.08-.83-1-1.97-1.28-2.85-2.1-2.44-2.3-5.12-4.33-8.02-6.02-2.52-1.47-5.04-3.16-8.41-2.35,.83,2.16,2.15,3.91,3.67,5.5,1.38,1.44,2.76,2.86,3.9,4.5,1.53,2.2,2.36,4.6,2.87,7.28,.62,3.25,.03,6.59,.98,9.73,.74,2.44,.79,5.3,3.53,6.75,.85,.45,.67,1.09-.05,1.6-.12,.09-.27,.15-.39,.25-2.03,1.65-2.5,3.16-1.78,5.63,1.32,4.49,2.1,9.04,1.77,13.76-.12,1.78-.71,3.42-1.17,5.1-.62,2.29-1.69,4.29-3.69,5.84,1.2,.95,2.29,.33,3.16,.78-.86,1.48-2.45,.15-3.65,1,.86,1.08,2.06,1.23,3.23,1.3,4.59,.29,8.59-1.15,11.97-4.28,2.83-2.61,5.28-5.55,7.43-8.72,4.69-6.92,10.35-12.67,18.3-15.83,1.42-.56,2.75-1.34,4.08-2.11,2.87-1.66,5.53-3.55,7.33-6.43Z"/>
  <path class="cls-3" d="M435.48,65.65c-.32-.33-.38-.64,.08-.9,1.92-1.08,3.89-2.12,5.74-3.28,3.43-2.15,7.25-3.33,10.9-4.9,3.12-1.35,6.44-2.26,9.72-3.24,2.88-.86,5.79-1.67,8.73-2.28,3.49-.73,7.05-1.15,10.55-1.83,1.96-.38,3.97-.32,5.88-.66,8.82-1.58,17.69-.62,26.53-.79,3.21-.06,6.44,.31,9.66,.69,3.48,.41,6.93,.96,10.39,1.5,4.6,.73,9.11,1.85,13.49,3.43,2.41,.87,4.95,1.37,7.29,2.45,4.84,2.23,9.66,4.47,13.28,8.62,1.4,1.6,2.4,3.32,2.78,5.4,1.19,6.39,1.51,12.79,.81,19.29-.48,4.43-1.5,8.71-2.88,12.87-1.57,4.75-3.74,9.27-6.36,13.59-2.42,3.98-5.17,7.69-8.03,11.34-1.78,2.28-3.85,4.29-5.86,6.36-1.85,1.91-3.91,3.61-5.59,5.7-.96,1.19-2.49,1.72-3.61,2.79-3.59,3.44-7.97,5.81-11.99,8.66-.8,.56-1.59,.71-2.53,.11-6.83-4.35-11.79-10-13.05-18.31-.96-6.3-.25-12.46,1.5-18.54,1.44-5,3.41-9.78,5.87-14.36,1.72-3.21,3.55-6.35,5.41-9.48,.93-1.56,2.23-2.55,3.7-3.22,2.38-1.09,4.94-1.75,7.62-1.73,2.99,.02,3.63,1.45,2.57,3.75-.12,.26-.31,.54,.07,.93,2.31-1.05,3.7-2.82,3.8-5.38,.08-2.19-1.29-3.63-3.02-4.78-2.41-1.61-5.04-2.5-7.97-2.32-.98,.06-1.7-.06-1.49-1.31,.01-3.75-1.55-6.71-4.48-8.99-3.22-2.51-6.99-3.84-10.88-4.67-9.7-2.06-19.53-2.66-29.43-2.07-11.75,.7-23.46,1.89-35.13,3.5-3.94,.55-7.81,1.5-11.76,1.98-.76,.09-1.51,.24-2.28,.07Z"/>
  <path class="cls-4" d="M435.48,65.65c.58-.6,1.38-.64,2.11-.75,7.01-1.09,14.01-2.3,21.05-3.16,5.91-.71,11.84-1.27,17.78-1.69,6.94-.49,13.89-1.02,20.82-.63,8.14,.47,16.33,.98,23.96,4.39,4.57,2.04,8,5.05,8.9,10.26,.12,.68,.63,1.58-.67,1.75-1.05-4.16-4.07-6.39-7.91-7.46-2.01-.56-4.08-1.09-6.22-1.25-2.15-.17-4.3-.24-6.42-.07-4.25,.34-8.53,.51-12.68,1.6-1.14,.3-2.51-.01-3.34,1.17-1.12-.6-2.21,.07-3.31,.1-.46,.01-.94,.02-1.36,.17-3.45,1.24-7.1,1.05-10.65,1.49-5.91,.73-11.86,1.18-17.83,.91-5.46-.25-10.93-.72-16.16-2.37-2.92-.92-5.83-2.14-8.06-4.45Z"/>
  <path class="cls-4" d="M115.26,134.86c.43-.7,1.11-.58,1.68-.64,1.24-.14,1.89-.81,2.16-2.01,.42-1.88,.58-3.79,.59-5.69,.05-10.94,.13-21.89,0-32.83-.06-5.29-.88-4.99-4.66-5.36-.22-.02-.48-.01-.62-.41-.06-.57,.49-.57,.9-.55,9.09,.47,18.22-.65,27.29,.45,6.06,.74,11.68,2.68,15.85,7.41,6.58,7.49,7.43,16.11,3.98,25.1-3.57,9.32-10.86,14.04-20.61,15.25-5.2,.64-10.4,.06-15.58-.22-2.91-.15-5.8-.21-8.7-.04-.78,.05-1.65,.37-2.27-.47Z"/>
  <path class="cls-4" d="M264.92,126.22c0-4.62,.05-8.74-.01-12.86-.09-6.12-.24-12.25-.39-18.37-.03-1.3-.13-2.6-.34-3.88-.26-1.63-.92-2.21-2.54-2.48-.53-.09-1.06-.14-1.59-.21-.52-.08-1.03-.17-1.64-.26q.97-.85,3.51-.78c1.22,.03,2.45,.12,3.67,.12,1.3,0,2.6-.09,3.9-.1,1.16,0,2.36-.25,3.51,.2-.29,.86-.83,.68-1.24,.77-2.66,.58-2.94,.87-3.12,3.67-.09,1.45-.11,2.91-.12,4.36-.05,11.64-.09,23.27-.13,34.91,0,.61,.05,1.23-.03,1.84-.11,.85,.43,2.1-.58,2.45-.89,.31-1.61-.71-2.28-1.31-6.08-5.5-11.75-11.41-17.43-17.31-5.84-6.06-11.58-12.23-17.37-18.35-.46-.48-.84-1.07-1.31-1.29-.38,.04-.44,.14-.43,.34,.25,9.79,.5,19.59,.75,29.38,.04,1.38,.12,2.75,.41,4.1,.46,2.15,1.16,2.78,3.4,3.04,.68,.08,1.36,.16,2.03,.27,.12,.02,.22,.19,.44,.4-1.66,1.08-3.4,.3-5.05,.34-1.68,.04-3.37,0-5.05-.03-1.71-.04-3.46,.59-5.3-.14,.42-.87,1.16-.71,1.75-.8,2.33-.36,2.87-.85,3.13-3.18,.13-1.21,.13-2.45,.13-3.67,.01-12.33,0-24.65,.03-36.98,0-1.23-.54-2.98,.88-3.48,1.19-.42,2,1.15,2.82,2,11.18,11.76,22.61,23.29,33.64,35.2,.56,.61,1.13,1.2,1.96,2.08Z"/>
  <path class="cls-4" d="M457.81,87.97c.68-.9,1.43-.64,2.07-.61,4.98,.22,9.95,.09,14.93-.01,2.76-.05,5.52,.2,8.19,.94,4.83,1.35,8,4.92,8.5,9.73,.27,2.64-.38,5.16-1.57,7.54-1.32,2.65-3.21,4.85-5.41,6.78-.8,.7-.92,1.16-.21,2.02,4.16,5.1,8.18,10.33,12.69,15.14,2.53,2.7,5.36,4.81,9.29,4.84,.22,0,.46,.07,.66,.16,.12,.05,.19,.21,.32,.36-.56,.67-1.34,.56-2.07,.56-2.07,.02-4.13-.05-6.2-.19-2.75-.18-4.99-1.3-6.96-3.13-1.8-1.68-3.31-3.61-4.82-5.54-2.4-3.08-4.84-6.14-7.09-9.32-1.09-1.54-2.32-2.23-4.18-2.15-1.83,.08-3.67-.05-5.51-.15-.98-.05-1.38,.29-1.37,1.3,.07,4.59-.14,9.19,.17,13.78,.22,3.28,.87,3.84,4.2,4.21,.57,.06,1.25-.11,1.86,.78-1.83,.75-3.6,.21-5.32,.21-1.91,0-3.83,0-5.74-.05-1.78-.05-3.6,.58-5.4-.07,.24-.89,.85-.76,1.34-.85,1.99-.38,2.14-.55,2.61-2.59,.3-1.28,.39-2.57,.41-3.87,.2-11.56,.21-23.13,.02-34.69-.01-.61-.01-1.23-.09-1.83-.24-1.76-.84-2.34-2.6-2.68-.88-.17-1.83-.06-2.73-.61Z"/>
  <path class="cls-4" d="M283.61,87.93c1.21-.66,2.14-.47,3.01-.46,6.13,.06,12.25,.13,18.38,.2,2.3,.03,4.58-.11,7.06-.72-.25,2.6-.49,5.08-.75,7.55-.03,.28-.22,.61-.57,.6-.35,0-.51-.28-.53-.62-.03-.38-.05-.76-.09-1.14-.16-1.38-.9-2.18-2.26-2.54-1.27-.34-2.57-.48-3.85-.56-2.44-.14-4.9-.07-7.35-.16-1.02-.04-1.31,.38-1.31,1.34,.03,5.36,.02,10.72,0,16.08,0,.85,.27,1.26,1.19,1.25,3.75-.06,7.5,.05,11.25-.27,1.22-.1,2.04-.89,3.04-1.5,.19,1.73-.47,7.68-.97,9-.84-.27-.5-1-.6-1.55-.31-1.76-.87-2.45-2.61-2.73-3.42-.54-6.87-.47-10.32-.48-.86,0-.98,.51-.98,1.19,0,1.99,0,3.98,0,5.97,0,3.29-.04,6.59,.02,9.88,.06,3.13,1.17,4.27,4.27,4.52,2.45,.19,4.9,.16,7.35,.01,3.25-.2,5.27-1.6,5.63-4.63,.05-.41,.1-.93,.63-1.12,.12,.07,.34,.14,.35,.23,.26,2.4-.35,4.7-.85,7-.16,.72-.73,1.17-1.5,1.23-.61,.05-1.22,.08-1.83,.07-4.36,0-8.72-.11-13.08-.39-2.67-.17-5.35-.13-8.03,.18-1.13,.13-2.41,.51-3.49-.37,.39-.91,1.17-.76,1.81-.79,1.2-.07,1.76-.71,2.03-1.81,.47-1.87,.61-3.79,.62-5.69,.06-11.03,.12-22.06,0-33.09-.05-4.38-.46-5.16-4.74-5.24-.2,0-.39-.18-.93-.45Z"/>
  <path class="cls-4" d="M444.27,127.07c.12,.08,.33,.16,.34,.25,.18,2.47-.26,4.86-.98,7.2-.29,.95-1.23,1.07-2.1,1.06-3.9-.06-7.81-.05-11.71-.24-3.37-.16-6.72-.3-10.09,.01-1.29,.12-2.68,.54-3.92-.35,.35-.83,1.04-.77,1.61-.77,1.44,0,2.03-.81,2.3-2.08,.38-1.81,.55-3.65,.55-5.48,.05-11.03,.03-22.06,.04-33.09,0-.08,0-.15,0-.23-.33-4.23-.58-4.79-4.57-4.96-.32-.01-.6-.09-.81-.43,.6-.84,1.5-.51,2.27-.51,6.13,.05,12.25,.13,18.38,.2,2.44,.03,4.87-.03,7.5-.74-.27,2.65-.5,5.13-.78,7.61-.03,.27-.22,.59-.59,.56-.37-.03-.47-.33-.5-.65-.02-.23-.02-.46-.05-.69-.33-2.14-.83-2.74-3.01-3.13-1.43-.26-2.88-.39-4.33-.46-1.83-.09-3.68-.07-5.51-.07-1.92,0-1.94,.01-1.95,1.81-.01,5.05-.02,10.11,0,15.17,0,1.62,.04,1.65,1.66,1.66,2.6,0,5.21,0,7.81-.07,2.11-.06,4.29,.03,6.17-1.6-.55,3.01-.32,6.02-.9,9.02-1.1-.4-.75-1.13-.85-1.68-.32-1.75-.88-2.43-2.63-2.7-3.42-.53-6.87-.46-10.32-.47-.89,0-.95,.55-.95,1.22,0,2.6-.02,5.21-.02,7.81,0,2.76-.03,5.52,.05,8.27,.08,2.77,1.12,3.94,3.84,4.22,2.82,.29,5.67,.28,8.49-.01,2.62-.27,4.45-1.55,4.86-4.36,.05-.37,.22-.73,.37-1.08,.05-.11,.23-.15,.35-.23Z"/>
  <path class="cls-4" d="M169.06,87.8c1.09-.42,11.14-.57,13.21-.19,.17,.38-.08,.57-.36,.69-1.23,.52-1.19,1.47-.81,2.48,.18,.5,.47,.96,.74,1.42,3.74,6.23,7.49,12.46,11.23,18.68,.12,.19,.29,.36,.47,.58,.62-.26,.74-.89,1.02-1.37,3.07-5.2,6.13-10.42,9.19-15.63,.35-.59,.72-1.18,1.02-1.8,1.14-2.34,.92-3.31-1.43-5.08,2.38-.48,4.48,.01,6.54-.07,2.02-.08,4.04-.23,6.2-.09-.24,.99-.86,.92-1.31,.99-2,.31-3.54,1.37-4.79,2.91-.77,.95-1.55,1.9-2.24,2.91-3.78,5.57-7.32,11.3-10.73,17.11-.96,1.63-1.48,3.33-1.45,5.23,.05,4.13,.06,8.27,.11,12.4,0,.76,.04,1.54,.16,2.29,.3,1.91,1.06,2.62,2.99,2.9,.95,.14,1.97-.07,3.22,.78-2.16,.83-4.02,.27-5.83,.28-1.84,.01-3.68,.02-5.51-.06-1.83-.08-3.71,.63-5.64-.12,.59-.93,1.35-.74,1.99-.86,1.29-.25,2.04-1.01,2.22-2.29,.15-1.14,.3-2.28,.31-3.42,.05-3.44,.03-6.89,.04-10.33,0-2.27-.54-4.39-1.76-6.32-3.8-6.01-7.58-12.04-11.41-18.03-.65-1.02-1.47-1.96-2.29-2.86-1.1-1.21-2.39-2.13-4.05-2.46-.39-.08-.97-.02-1.05-.66Z"/>
  <path class="cls-4" d="M326.3,124.29c1.04,.55,.77,1.24,.83,1.79,.3,2.92,1.79,5.03,4.44,6.21,3.33,1.49,6.8,1.71,10.3,.65,6.37-1.94,6.79-8.89,4.42-12.49-.89-1.36-2.04-2.49-3.31-3.48-2.48-1.93-4.98-3.81-7.47-5.72-1.89-1.44-3.66-3.01-5.24-4.79-3.15-3.56-4.2-7.63-2.64-12.14,1.56-4.52,5.24-6.55,9.68-7.47,3.44-.71,6.85-.46,10.25,.28,.37,.08,.75,.16,1.12,.23,2.49,.47,2.47,.47,2.37,3.13-.05,1.38-.04,2.75-.08,4.13-.01,.44,.11,.94-.45,1.26-.74-.16-.73-.83-.82-1.38-.42-2.8-2.23-4.24-4.79-4.93-2.78-.75-5.6-.9-8.37,0-4.65,1.5-6.35,6.09-3.9,10.33,.78,1.35,1.88,2.41,3.06,3.39,2.12,1.77,4.45,3.24,6.71,4.81,2.77,1.93,5.43,3.99,7.49,6.71,2.17,2.86,3.11,6.07,2.76,9.67-.51,5.34-4.75,9.8-10.02,10.92-4.7,1-9.42,.93-14.08-.35-2.75-.75-2.95-1.02-2.86-3.8,.07-2.27,0-4.57,.62-6.98Z"/>
  <path class="cls-4" d="M404.58,86.94c.43,2.03,.28,6.96-.26,8.58-.77-.02-.76-.68-.77-1.13-.08-2.08-1.44-2.92-3.19-3.37-1.26-.32-2.55-.51-3.86-.51-2.45-.02-4.9-.08-7.35-.09-1.69,0-1.71,.03-1.72,1.82-.01,5.36,0,10.72,0,16.08,0,5.67-.01,11.33,.04,17,.02,1.91,.15,3.82,.34,5.73,.21,2.18,.98,2.88,3.21,3.15,.88,.11,1.82-.06,2.96,.7-2.08,.99-3.94,.32-5.74,.34-1.91,.02-3.83,.02-5.74-.05-1.86-.06-3.75,.63-5.69-.08,.54-.89,1.3-.75,1.93-.85,1.23-.19,1.89-.89,2.18-2.05,.34-1.35,.46-2.72,.46-4.1,.02-12.02,.04-24.04,.05-36.06,0-1.61-.04-1.64-1.63-1.64-3.06,.01-6.12,.09-9.19,.1-2.92,.01-5.28,.86-6.28,3.93-.06,.19-.28,.34-.45,.49-.04,.03-.14,0-.24-.01-.4-.23-.34-.64-.27-.98,.42-2.02,.88-4.03,1.3-6.05,.2-.97,.73-1.19,1.66-.95,2.31,.6,4.69,.65,7.06,.66,8.19,.02,16.38,0,24.57,.02,2.23,0,4.41-.35,6.6-.69Z"/>
  <path class="cls-4" d="M128.21,140.78c.04,.89-.3,1.57-.92,2.23-2.18,2.32-4.81,3.99-7.6,5.45-2.98,1.56-5.99,3.06-8.93,4.68-4.13,2.28-6.94,5.94-9.73,9.58-2.51,3.27-4.86,6.66-7.65,9.71-3.74,4.11-8.21,6.55-13.9,6.32-1.39-.06-2.73-.31-3.94-1.07-.47-.29-.98-.58-.65-1.24,.24-.48,.56-.86,1.26-.66,1.11,.32,2.24,.3,3.37,.05,2.4-.55,4.51-1.63,6.19-3.49,.72-.81,1.98-.65,2.74-1.49,1.44-1.58,2.92-3.13,4.09-4.93,2.33-3.58,3.92-7.55,6.07-11.22,1.53-2.62,2.76-5.51,5.19-7.45,2.23-1.79,4.71-3,7.71-3.46,3.09-.47,6.28-.49,9.29-1.66,1.43-.55,3.11-.13,4.71-.45,.98-.2,1.66-1.15,2.72-.91Z"/>
  <path class="cls-2" d="M125.76,109.77c0-5.74,0-11.49,0-17.23,0-2.3,0-2.48,2.14-2.65,7.94-.64,15.67-.08,22.13,5.34,6.27,5.26,8.4,12.19,7.74,20.14-.09,1.14-.34,2.27-.55,3.39-1.45,7.77-6.48,12.08-13.81,13.98-4.44,1.15-8.97,.97-13.44,.06-3.08-.63-4.04-1.68-4.1-4.87-.11-6.05-.03-12.1-.03-18.15h-.09Z"/>
  <path class="cls-2" d="M469.08,100.96c0-3.13,.05-6.27-.02-9.4-.03-1.17,.43-1.68,1.52-1.78,2.06-.21,4.12-.38,6.16,.01,4.21,.8,6.96,3.27,8.17,7.41,1.06,3.63,.99,7.24-.37,10.78-1.18,3.06-3.4,4.8-6.75,4.96-2.3,.11-4.58-.13-6.84-.54-1.75-.32-1.84-.49-1.85-2.27-.02-3.06,0-6.11,0-9.17Z"/>
  <rect class="cls-1" width="606.11" height="236.18"/>
  <g>
    <path class="cls-5" d="M156.97,171.49c-1.16-.41-2.06-.94-2.7-1.61l.71-1.39c.62,.62,1.44,1.12,2.46,1.5,1.03,.38,2.08,.57,3.17,.57,1.53,0,2.68-.28,3.44-.84,.77-.56,1.15-1.29,1.15-2.18,0-.68-.21-1.23-.62-1.64s-.92-.72-1.53-.94-1.44-.46-2.51-.72c-1.29-.33-2.31-.64-3.07-.94-.77-.3-1.42-.76-1.97-1.38s-.82-1.46-.82-2.51c0-.86,.23-1.65,.68-2.36s1.16-1.27,2.1-1.7c.94-.42,2.11-.63,3.51-.63,.98,0,1.93,.13,2.87,.4,.94,.27,1.74,.64,2.43,1.11l-.61,1.44c-.72-.47-1.48-.83-2.29-1.06s-1.61-.35-2.39-.35c-1.5,0-2.62,.29-3.38,.87s-1.14,1.32-1.14,2.23c0,.68,.21,1.23,.62,1.65,.41,.42,.93,.73,1.56,.95,.63,.22,1.47,.46,2.53,.72,1.25,.31,2.27,.61,3.04,.91,.77,.3,1.43,.76,1.97,1.37,.54,.61,.81,1.44,.81,2.48,0,.86-.23,1.65-.7,2.36-.46,.71-1.18,1.27-2.14,1.68s-2.14,.62-3.54,.62c-1.27,0-2.49-.2-3.65-.61Z"/>
    <path class="cls-5" d="M186.58,170.96c-1.37-.76-2.45-1.79-3.22-3.11-.77-1.32-1.16-2.8-1.16-4.44s.39-3.12,1.16-4.44c.77-1.32,1.85-2.36,3.22-3.11s2.91-1.14,4.6-1.14,3.22,.37,4.58,1.12c1.36,.75,2.43,1.79,3.21,3.11,.78,1.33,1.17,2.81,1.17,4.45s-.39,3.13-1.17,4.45c-.78,1.33-1.85,2.36-3.21,3.11-1.36,.75-2.88,1.12-4.58,1.12s-3.23-.38-4.6-1.13Zm8.26-1.39c1.09-.61,1.94-1.46,2.56-2.54s.93-2.29,.93-3.62-.31-2.54-.93-3.62-1.47-1.93-2.56-2.54c-1.09-.61-2.31-.92-3.66-.92s-2.57,.3-3.67,.92c-1.1,.61-1.96,1.46-2.59,2.54-.63,1.08-.94,2.29-.94,3.62s.31,2.54,.94,3.62c.63,1.08,1.49,1.93,2.59,2.54,1.1,.61,2.32,.92,3.67,.92s2.57-.31,3.66-.92Z"/>
    <path class="cls-5" d="M216.97,154.87h1.81v15.52h9.57v1.56h-11.37v-17.08Z"/>
    <path class="cls-5" d="M245.85,170.19c-1.24-1.27-1.85-3.12-1.85-5.54v-9.79h1.81v9.71c0,1.99,.45,3.47,1.34,4.44,.89,.98,2.19,1.46,3.88,1.46s3.01-.49,3.9-1.46c.9-.98,1.34-2.46,1.34-4.44v-9.71h1.76v9.79c0,2.42-.61,4.27-1.84,5.54-1.23,1.27-2.95,1.9-5.16,1.9s-3.94-.63-5.17-1.9Z"/>
    <path class="cls-5" d="M279.57,156.43h-6v-1.56h13.81v1.56h-6v15.52h-1.81v-15.52Z"/>
    <path class="cls-5" d="M303.05,154.87h1.81v17.08h-1.81v-17.08Z"/>
    <path class="cls-5" d="M326.08,170.96c-1.37-.76-2.45-1.79-3.22-3.11-.77-1.32-1.16-2.8-1.16-4.44s.39-3.12,1.16-4.44c.77-1.32,1.85-2.36,3.22-3.11s2.91-1.14,4.6-1.14,3.22,.37,4.58,1.12c1.36,.75,2.43,1.79,3.21,3.11,.78,1.33,1.17,2.81,1.17,4.45s-.39,3.13-1.17,4.45c-.78,1.33-1.85,2.36-3.21,3.11-1.36,.75-2.88,1.12-4.58,1.12s-3.23-.38-4.6-1.13Zm8.26-1.39c1.09-.61,1.94-1.46,2.56-2.54s.93-2.29,.93-3.62-.31-2.54-.93-3.62-1.47-1.93-2.56-2.54c-1.09-.61-2.31-.92-3.66-.92s-2.57,.3-3.67,.92c-1.1,.61-1.96,1.46-2.59,2.54-.63,1.08-.94,2.29-.94,3.62s.31,2.54,.94,3.62c.63,1.08,1.49,1.93,2.59,2.54,1.1,.61,2.32,.92,3.67,.92s2.57-.31,3.66-.92Z"/>
    <path class="cls-5" d="M370.75,154.87v17.08h-1.49l-10.98-13.86v13.86h-1.81v-17.08h1.49l11.01,13.86v-13.86h1.78Z"/>
    <path class="cls-5" d="M390.16,171.49c-1.16-.41-2.06-.94-2.7-1.61l.71-1.39c.62,.62,1.44,1.12,2.46,1.5,1.03,.38,2.08,.57,3.17,.57,1.53,0,2.68-.28,3.44-.84,.77-.56,1.15-1.29,1.15-2.18,0-.68-.21-1.23-.62-1.64s-.92-.72-1.53-.94-1.44-.46-2.51-.72c-1.29-.33-2.31-.64-3.07-.94-.77-.3-1.42-.76-1.97-1.38s-.82-1.46-.82-2.51c0-.86,.23-1.65,.68-2.36s1.16-1.27,2.1-1.7c.94-.42,2.11-.63,3.51-.63,.98,0,1.93,.13,2.87,.4,.94,.27,1.74,.64,2.43,1.11l-.61,1.44c-.72-.47-1.48-.83-2.29-1.06s-1.61-.35-2.39-.35c-1.5,0-2.62,.29-3.38,.87s-1.14,1.32-1.14,2.23c0,.68,.21,1.23,.62,1.65,.41,.42,.93,.73,1.56,.95,.63,.22,1.47,.46,2.53,.72,1.25,.31,2.27,.61,3.04,.91,.77,.3,1.43,.76,1.97,1.37,.54,.61,.81,1.44,.81,2.48,0,.86-.23,1.65-.7,2.36-.46,.71-1.18,1.27-2.14,1.68s-2.14,.62-3.54,.62c-1.27,0-2.49-.2-3.65-.61Z"/>
    <path class="cls-5" d="M436.08,154.87h1.81v15.52h9.57v1.56h-11.37v-17.08Z"/>
    <path class="cls-5" d="M463.24,154.87h1.81v15.52h9.57v1.56h-11.37v-17.08Z"/>
    <path class="cls-5" d="M501.93,156.43c1.24,1.04,1.85,2.47,1.85,4.3s-.62,3.25-1.85,4.28c-1.24,1.03-2.94,1.55-5.13,1.55h-4.59v5.39h-1.81v-17.08h6.39c2.18,0,3.89,.52,5.13,1.56Zm-1.29,7.43c.9-.74,1.34-1.79,1.34-3.14s-.45-2.44-1.34-3.19c-.9-.74-2.19-1.11-3.88-1.11h-4.54v8.54h4.54c1.69,0,2.99-.37,3.88-1.11Z"/>
  </g>
</svg>